PathFileType	4	(X/Y/Z)	pose_F01_0-86.trc
DataRate	CameraRate	NumFrames	NumMarkers	Units	OrigDataRate	OrigDataStartFrame	OrigNumFrames
30	30	8	21	m	30	64	86
Frame#	Time	CHip			RHip			RKnee			RAnkle			RBigToe			RSmallToe			RHeel			LHip			LKnee			LAnkle			LBigToe			LSmallToe			LHeel			Neck			Nose			RShoulder			RElbow			RWrist			LShoulder			LElbow			LWrist			
		X1	Y1	Z1	X2	Y2	Z2	X3	Y3	Z3	X4	Y4	Z4	X5	Y5	Z5	X6	Y6	Z6	X7	Y7	Z7	X8	Y8	Z8	X9	Y9	Z9	X10	Y10	Z10	X11	Y11	Z11	X12	Y12	Z12	X13	Y13	Z13	X14	Y14	Z14	X15	Y15	Z15	X16	Y16	Z16	X17	Y17	Z17	X18	Y18	Z18	X19	Y19	Z19	X20	Y20	Z20	X21	Y21	Z21	
64	2.1333333333333333	-0.26364578404174954	1.8373993159684747	-0.4431132811125142	-0.27341177661429944	1.8346660555294312	-0.38192223848685364	-0.2812281428513815	1.6953211163306856	-0.35862423273123556	-0.2832919580128227	1.5652854205282827	-0.3451390287528802	-0.2561369930510548	1.53654095156113	-0.3631722758247023	-0.2610818493547106	1.5378297902879354	-0.32889273582776385	-0.28530580669787087	1.5600779490266585	-0.34752648208763065	-0.25700976502044104	1.8393010302702146	-0.5080518899559877	-0.2725076857647215	1.7027923352173076	-0.46580468735006925	-0.27505046757739854	1.5758906063321727	-0.45407677523053164	-0.24465965179156157	1.5480644014000668	-0.49317891057525615	-0.24896361371244724	1.5565891740306652	-0.5165370666222002	-0.2733394029648888	1.5644359548912454	-0.43635858086327933	-0.27027631516070627	1.9868314274119583	-0.4526414156653582	-0.24679619491277727	2.0457545411108673	-0.5122707349215291	-0.2809752254061377	1.9805888112367063	-0.36451661562990895	-0.27519239883827273	1.8999306504938303	-0.3258634364721361	-0.26154998135276014	1.8269862444918876	-0.31488135279196583	-0.2564187531442905	1.997089083709585	-0.5462721359358461	-0.2255376638645645	1.9619036191299974	-0.6082541420668288	-0.24302790729036433	2.0080551364089874	-0.5159688203623521
65	2.1666666666666665	-0.2633840693074099	1.8367575214733145	-0.4431018293313638	-0.2748699365387804	1.832673610366053	-0.37956483425867354	-0.2804564911134986	1.6974450066282887	-0.35974066732518795	-0.2829422971755312	1.5659727193013946	-0.34565489393490323	-0.25735902751671874	1.5371300817528244	-0.3661928066169837	-0.2640681634185228	1.5381704216812009	-0.32988731475962757	-0.2852658884729516	1.560076707401653	-0.3475391114668984	-0.2565741367158069	1.8399792729851188	-0.5082646569641732	-0.27324428378686183	1.7029478496504862	-0.4693806167648423	-0.27470272839487686	1.5759905031404187	-0.4548928867567216	-0.2445693253292575	1.5472308665222758	-0.49327660061505874	-0.24792134155917123	1.5561149562863794	-0.5135309595661175	-0.2741866144401234	1.5656481107177886	-0.44019578271458953	-0.2711486282020625	1.9880158439281812	-0.45566641457755913	-0.24671045030168418	2.0468745005358397	-0.5122305194831445	-0.2807788561107817	1.981810772798441	-0.36459465791585627	-0.2752629740257671	1.8989489655019791	-0.3258352508607503	-0.26154846272700144	1.824489580487789	-0.31458347223427	-0.25741931556270675	1.9971763472898671	-0.5492608663632446	-0.22465509407383208	1.963146286776308	-0.6053319675378315	-0.24294153706676158	2.01218215503074	-0.5168436582558089
66	2.2	-0.26361137072393986	1.8400198178677596	-0.44350745844709827	-0.27509419186638245	1.83572669032958	-0.38007436308199505	-0.2808413776927252	1.6977104872106639	-0.3593891013166339	-0.2805362217178916	1.566648764141855	-0.3437187555980406	-0.2545241796247027	1.5381856181801232	-0.36513683135375463	-0.2614824156827316	1.5380482406993834	-0.3282038564326107	-0.28523108597206775	1.56006584479699	-0.34752946777469873	-0.257068215608418	1.8432935878624457	-0.5086425182159825	-0.27232522472109943	1.7071249170793046	-0.4664554332129064	-0.2722983739227818	1.577352395407173	-0.4526475633447512	-0.2430434846752089	1.5478409768561092	-0.4906432512847679	-0.24773233446358953	1.5555505814519903	-0.5135210956815353	-0.27326262441528754	1.5671172701091687	-0.43663514857465796	-0.26921049062033187	1.9905608674043347	-0.4582085355001285	-0.2428411986765391	2.048195557152008	-0.51699973942671	-0.28086229633442533	1.980521618432784	-0.36451505702883236	-0.27429991561864103	1.8987847980749477	-0.33080155565127034	-0.259746235820737	1.8247140564499524	-0.3166796151721791	-0.2572496966998139	1.9997000686170083	-0.549874811553796	-0.2226438542087152	1.9632777294785544	-0.60768013099451	-0.23912561411694253	2.010725215132772	-0.5211691235018888
67	2.2333333333333334	-0.2653350764657319	1.8366975315891574	-0.4409330899121282	-0.2749739061846481	1.8341098483349465	-0.37978199288340697	-0.2808176200067088	1.6975166933532424	-0.3594019975354229	-0.28044326080373677	1.5663038628657149	-0.34371978002222064	-0.25425491804224415	1.5367798573041993	-0.3652896935961182	-0.261054198153578	1.5380351913350754	-0.32891381359915645	-0.2851028634860335	1.5595436368737559	-0.3475205138123946	-0.256910381486575	1.8402942254831678	-0.5082411969251425	-0.27320064650978715	1.7057497360769778	-0.46969731180690383	-0.27300247001883565	1.5752150233248623	-0.45629262661079234	-0.24431219243077398	1.5461033984889134	-0.4934233880496281	-0.24784120416380878	1.5561840351319047	-0.5133652373560829	-0.2740835777238811	1.5653605970383382	-0.44029424464462785	-0.26917851322517095	1.990585073334184	-0.45827316544784896	-0.24287483815661426	2.0482737111453493	-0.5171389874381044	-0.2788491523491095	1.9829541620809545	-0.36670596474680833	-0.2725614664678253	1.9005617026344714	-0.33335496666507836	-0.260761783751213	1.8275341897394486	-0.3206001942518073	-0.25723519068665723	1.9996464632601703	-0.5499198256652795	-0.2194193924689575	1.9624597511890647	-0.615234542448443	-0.24202651612946663	2.009093708080866	-0.5216170678230392
68	2.2666666666666666	-0.265801639957098	1.8361866084492224	-0.44070179136416093	-0.2754050431360995	1.833429003962016	-0.379587577587176	-0.28081485364210457	1.6976920254885328	-0.3594648097658756	-0.2797389426691463	1.5669532182606312	-0.34500165805531796	-0.2560018738929321	1.5359470462878841	-0.3632291755846408	-0.2609343964040351	1.5372128230805193	-0.32894390657103034	-0.2851770335902598	1.5597574984028386	-0.34756200674847954	-0.2573785780075173	1.8394210706640441	-0.5080109551525903	-0.27340925600546767	1.7045511237412534	-0.469383721773298	-0.2730882078886508	1.5758221826690908	-0.4561378969971513	-0.24395947686154845	1.5476438071911611	-0.49390223746756673	-0.24760332227137113	1.5549751224263042	-0.5134985620626774	-0.2742890446813687	1.5668154176315132	-0.43993699439567147	-0.2691793182111285	1.9905781292789475	-0.4582228137995322	-0.2437894345085347	2.049638534129282	-0.5206994911044581	-0.27892632974558484	1.98346725155385	-0.3671734271334216	-0.2671088213679987	1.8995621764693214	-0.3396241637245268	-0.26258823368980333	1.8219143645306275	-0.32286478562009896	-0.2573453757464354	1.9972800385147325	-0.5493675764070917	-0.22263205343613413	1.958746300035521	-0.6157276475255248	-0.24007700329049894	2.009147907238995	-0.5239488096906019
69	2.3	-0.263987787476315	1.8378334969402155	-0.4431310700385623	-0.27356338727117974	1.8336094178994313	-0.3817589164515874	-0.27899422178456756	1.6949544837809052	-0.36103965182802145	-0.2797303051978025	1.5670817976409923	-0.3450064465157169	-0.2562576905042767	1.536941601653276	-0.3632189256687515	-0.26113387324996346	1.5379977821009003	-0.32890145262045517	-0.2852048065733869	1.560049497166394	-0.34757294761724156	-0.2574922295374481	1.840818442889628	-0.5083408177153471	-0.273389489199604	1.7043927293995458	-0.4693611186502229	-0.27530318415087784	1.5774813929145801	-0.45387712714781964	-0.24428174031943287	1.549267243339265	-0.49358445016852537	-0.24797867899149229	1.5568835277288442	-0.5131662861598466	-0.2743995602458506	1.5671361822992906	-0.43989961803941446	-0.2692309279070461	1.989580965825456	-0.45826457762503525	-0.2438103926180702	2.0470682923400783	-0.5204684895862083	-0.2770751008737584	1.9835922211160844	-0.3692774390043376	-0.2671333688384172	1.8996294776716238	-0.33981945349759063	-0.2610845762646629	1.8278368207280293	-0.3294283102343405	-0.2573183895737804	1.9986467922926903	-0.5498043365316116	-0.2256984462354289	1.9588167115738129	-0.6166891381259741	-0.23223338467019097	2.0071907124627937	-0.5326806453488141
70	2.3333333333333335	-0.26487019370237913	1.836397725631988	-0.44604358517745646	-0.2734318602444421	1.834640374976715	-0.38211410161056253	-0.278601592448051	1.6975018614999633	-0.3618917124698907	-0.2812942424606626	1.5671026439024005	-0.34741397500638016	-0.2539046062040696	1.5348542535143945	-0.3653405818791763	-0.26175798946117895	1.5358474080286075	-0.33220217101803806	-0.2852708322960781	1.5600464079011178	-0.3475262815399389	-0.2572275308226474	1.84061798955866	-0.5083039256835797	-0.2740251435725843	1.7039427878782998	-0.4731729203520919	-0.2729040129553992	1.5770609366933597	-0.45668665256349106	-0.24408236315913753	1.550522752463544	-0.4945808938025471	-0.247721273152429	1.5554371283214188	-0.5135704097227541	-0.27433655499479875	1.5669869283931686	-0.43995201667665274	-0.2692907050609837	1.9894992391281987	-0.45831074818530293	-0.24371646274639197	2.0495177464290295	-0.5209877006232829	-0.27624106435625334	1.9838593939725475	-0.3746076438543139	-0.26676798856485273	1.900179801462478	-0.3397289991621315	-0.26161374820696953	1.8281232103122294	-0.3329716893997986	-0.2593356069519251	1.997181064926716	-0.547208859821309	-0.230014970633392	1.9538051398645264	-0.620184649916518	-0.23301451201835188	2.0033039205167102	-0.5429866407933163
71	2.3666666666666667	-0.26278664045957834	1.834935508068677	-0.4480514834056323	-0.274214770728022	1.831605219119779	-0.3848655492105978	-0.279025865990253	1.6948777629226155	-0.36113232904699466	-0.28088143850072905	1.5649964591923333	-0.34772579170953904	-0.2542255385939582	1.5365972820919132	-0.36531543075846	-0.2609667409962302	1.5374479096519986	-0.3290071654273413	-0.2848163734619796	1.5577519383764906	-0.34783956783319675	-0.25690161355982116	1.8378572308687182	-0.5080441954876362	-0.27215783610690986	1.7012075206911799	-0.4748150346415681	-0.2739298595546293	1.576727961341181	-0.45994552647876746	-0.24379423610564036	1.546593450720317	-0.49394535782506693	-0.24759335483039097	1.5551821588579386	-0.5131957909526801	-0.2752637627541378	1.5660460357370325	-0.443272979541233	-0.26727986270162046	1.989718869033632	-0.460486223544193	-0.24274829702111436	2.0494494749631276	-0.5255028707741026	-0.2761905273086567	1.9839632722277	-0.37467307578198644	-0.2662087397929258	1.897894564865105	-0.34478412689137494	-0.26204330568238604	1.8217092510477113	-0.33728019888001165	-0.2543614611065094	1.9960463892216231	-0.5486005410718559	-0.23452975619951233	1.9507920685053293	-0.6157120689360105	-0.2288695702890088	1.9940987832426766	-0.5450624155159982
